# xmcd
#
# Track frame offsets:
#	150
#	15370
#	29625
#	41857
#	55140
#	69935
#	88800
#	104922
#	115420
#	123805
#	136005
#	150165
#	171960
#	186192
#	203105
#	217055
#
# Disc length: 3099 seconds
#
# Revision: 1
# Processed by: cddbd v1.5.1PL2 Copyright (c) Steve Scherf et al.
# Submitted via: MusicWizard 7.2.0
#
DISCID=e00c1910
DTITLE=Bilk, Mr.Acker and His Paramount Jazzband - Creole Jazz and Other Hits
DYEAR=1989
DGENRE=Jazz
TTITLE0=Maryland March
TTITLE1=China Boy
TTITLE2=Creole Jazz
TTITLE3=Nagasaki
TTITLE4=That's My Home
TTITLE5=Milenberg Joys
TTITLE6=Buona Sera
TTITLE7=Lazy River
TTITLE8=New Orleans Stomp
TTITLE9=Original Dixieland One-Step
TTITLE10=South
TTITLE11=Black Label Blues
TTITLE12=Carry Me Back
TTITLE13=Louisian-I-Ay
TTITLE14=Travelling Blues
TTITLE15=Delia Gone
EXTD=
EXTT0=
EXTT1=
EXTT2=
EXTT3=
EXTT4=
EXTT5=
EXTT6=
EXTT7=
EXTT8=
EXTT9=
EXTT10=
EXTT11=
EXTT12=
EXTT13=
EXTT14=
EXTT15=
PLAYORDER=
